<svg xmlns="http://www.w3.org/2000/svg" viewBox="0 0 420 260" role="img" aria-labelledby="title desc">
  <title id="title">Extract PDF pages</title>
  <desc id="desc">Selected pages being pulled from a PDF document.</desc>
  <rect width="420" height="260" rx="18" fill="#F5F3FF"/>
  <rect x="58" y="36" width="152" height="188" rx="14" fill="#FFFFFF" stroke="#DDD6FE" stroke-width="3"/>
  <rect x="88" y="70" width="92" height="12" rx="6" fill="#CBD5E1"/>
  <rect x="88" y="106" width="92" height="36" rx="8" fill="#EDE9FE" stroke="#8B5CF6" stroke-width="3"/>
  <rect x="88" y="160" width="70" height="10" rx="5" fill="#E2E8F0"/>
  <rect x="88" y="184" width="92" height="10" rx="5" fill="#E2E8F0"/>
  <path d="M226 126h64" stroke="#8B5CF6" stroke-width="8" stroke-linecap="round"/>
  <path d="M276 104l26 22-26 22" fill="none" stroke="#8B5CF6" stroke-width="8" stroke-linecap="round" stroke-linejoin="round"/>
  <rect x="298" y="82" width="78" height="94" rx="10" fill="#FFFFFF" stroke="#C4B5FD" stroke-width="3"/>
  <rect x="318" y="112" width="38" height="8" rx="4" fill="#8B5CF6"/>
  <rect x="318" y="136" width="30" height="7" rx="3.5" fill="#DDD6FE"/>
  <circle cx="88" cy="124" r="9" fill="#8B5CF6"/>
  <path d="M84 124l3 3 7-8" stroke="#FFFFFF" stroke-width="3" stroke-linecap="round" stroke-linejoin="round"/>
</svg>
